<svg xmlns="http://www.w3.org/2000/svg" viewBox="0 0 156.49 19.02"><defs><style>.cls-1{fill:#3a3a39;}.cls-2{fill:#e3000b;}</style></defs><title>Boersenblatt</title><g id="Ebene_2" data-name="Ebene 2"><g id="Ebene_1-2" data-name="Ebene 1"><path class="cls-1" d="M400.73,104.76h7.94c4.2,0,6,1.89,6,4.65v.1a3.66,3.66,0,0,1-3,3.83,3.87,3.87,0,0,1,3.56,4.16v.1c0,3.18-2.07,4.94-6.47,4.94h-8Zm6.92,7.07c1.59,0,2.18-.55,2.18-1.82v-.1c0-1.22-.64-1.76-2.18-1.76h-1.94v3.68Zm.17,7.31c1.62,0,2.36-.75,2.36-2.07V117c0-1.34-.72-2-2.51-2h-2v4.2Z" transform="translate(-400.73 -103.82)"/><path class="cls-1" d="M416.6,116.2V116c0-4.17,3.1-6.81,7.13-6.81s7.09,2.56,7.09,6.69v.2c0,4.23-3.11,6.76-7.11,6.76s-7.11-2.43-7.11-6.64m2.33-10.14a2.13,2.13,0,0,1,4.25,0,2.13,2.13,0,0,1-4.25,0m7.36,10.07v-.2c0-2.19-.87-3.41-2.56-3.41s-2.58,1.17-2.58,3.36v.2c0,2.24.87,3.46,2.58,3.46s2.56-1.25,2.56-3.41m-2.06-10.07a2.13,2.13,0,1,1,2.11,2.06,2.09,2.09,0,0,1-2.11-2.06" transform="translate(-400.73 -103.82)"/><path class="cls-1" d="M432.76,109.54h4.45v2.59a4.09,4.09,0,0,1,4.2-2.76v4.15c-2.71-.08-4.2.77-4.2,2.86v6.17h-4.45Z" transform="translate(-400.73 -103.82)"/><path class="cls-1" d="M442.58,118.42h4.1c.15.94.58,1.46,1.84,1.46,1.1,0,1.6-.42,1.6-1.07s-.63-.92-2.42-1.16c-3.48-.45-4.95-1.47-4.95-4.18,0-2.89,2.57-4.28,5.57-4.28,3.21,0,5.45,1.1,5.75,4.2h-4a1.45,1.45,0,0,0-1.67-1.29c-1,0-1.46.42-1.46,1s.59.87,2.19,1.07c3.6.45,5.34,1.39,5.34,4.18,0,3.08-2.29,4.47-5.89,4.47s-5.87-1.54-6-4.42" transform="translate(-400.73 -103.82)"/><path class="cls-1" d="M455.63,116.2V116c0-4.17,3.11-6.81,7-6.81,3.56,0,6.62,2,6.62,6.72v1.16h-9.16a2.6,2.6,0,0,0,2.71,2.71c1.47,0,2.09-.67,2.27-1.54h4.18c-.4,2.94-2.67,4.6-6.59,4.6-4.08,0-7.07-2.38-7.07-6.64m9.33-1.64c-.08-1.56-.85-2.43-2.29-2.43a2.48,2.48,0,0,0-2.49,2.43Z" transform="translate(-400.73 -103.82)"/><path class="cls-1" d="M471.2,109.54h4.45v2.09a4.6,4.6,0,0,1,4.28-2.44c2.51,0,4.25,1.57,4.25,4.9v8.46h-4.45V115c0-1.47-.57-2.19-1.87-2.19s-2.21.79-2.21,2.46v7.29H471.2Z" transform="translate(-400.73 -103.82)"/><path class="cls-1" d="M491.17,120.53v2h-4.45V103.82h4.45v7.66a4.58,4.58,0,0,1,4.05-2.29c3,0,5.5,2.29,5.5,6.74v.2c0,4.47-2.47,6.71-5.53,6.71a4.2,4.2,0,0,1-4-2.31m5-4.4v-.2c0-2.29-1-3.38-2.56-3.38s-2.59,1.17-2.59,3.36v.19c0,2.22,1,3.34,2.59,3.34s2.56-1.17,2.56-3.31" transform="translate(-400.73 -103.82)"/><rect class="cls-1" x="102.1" width="4.43" height="18.72"/><path class="cls-1" d="M509.27,118.94c0-3.06,2.58-4.25,6.91-4.25h1.24v-.3c0-1.24-.29-2.07-1.71-2.07a1.61,1.61,0,0,0-1.77,1.55h-4.17c.19-3.14,2.66-4.68,6.21-4.68s5.87,1.47,5.87,4.93v8.43h-4.33V121a4.27,4.27,0,0,1-3.85,1.81c-2.34,0-4.4-1.14-4.4-3.9m8.15-1v-.79h-1.16c-1.79,0-2.59.35-2.59,1.42,0,.74.5,1.21,1.54,1.21,1.27,0,2.21-.72,2.21-1.84" transform="translate(-400.73 -103.82)"/><path class="cls-1" d="M524.91,118.37v-5.8h-1.57v-3h1.57v-2.71h4.45v2.71h2.56v3h-2.56v5.37c0,1,.47,1.37,1.32,1.37a3.38,3.38,0,0,0,1.27-.22v3.38a9.41,9.41,0,0,1-2.47.37c-2.93,0-4.57-1.41-4.57-4.47" transform="translate(-400.73 -103.82)"/><path class="cls-1" d="M534.58,118.37v-5.8H533v-3h1.57v-2.71H539v2.71h2.56v3H539v5.37c0,1,.47,1.37,1.32,1.37a3.38,3.38,0,0,0,1.27-.22v3.38a9.33,9.33,0,0,1-2.46.37c-2.94,0-4.58-1.41-4.58-4.47" transform="translate(-400.73 -103.82)"/><polygon class="cls-2" points="152.88 12.79 149.37 7.99 143.46 7.99 147.06 0.92 152.97 0.92 156.49 5.72 152.88 12.79"/></g></g></svg>